<svg xmlns="http://www.w3.org/2000/svg" width="40" height="24" viewBox="0 0 35 24" fill="none"><path d="M16.7796 0.432983C7.68616 0.432983 0.312622 5.14842 0.312622 10.9666C0.312622 16.7848 7.68616 21.9569 16.7796 21.9569C25.8731 21.9569 33.2466 16.7848 33.2466 10.9666C33.2466 5.15253 25.8772 0.432983 16.7796 0.432983Z" fill="#00B1EA"></path><path d="M11.4223 7.71186C11.4141 7.72832 11.2536 7.8929 11.3565 8.02869C11.6116 8.35375 12.3975 8.53891 13.1917 8.36198C13.6649 8.255 14.2738 7.77358 14.8581 7.3045C15.4959 6.7984 16.1296 6.29229 16.7632 6.09067C17.438 5.87671 17.866 5.96723 18.154 6.05364C18.4667 6.14828 18.8329 6.35401 19.4213 6.79428C20.524 7.62545 24.9638 11.4974 25.7332 12.1681C26.3504 11.8883 29.2924 10.6991 33.0245 9.87618C32.6994 7.88879 31.502 5.99192 29.6669 4.5024C27.1076 5.57633 23.7747 6.21822 20.7174 4.72871C20.701 4.72459 19.0469 3.93869 17.4174 3.97983C14.9939 4.03744 13.9405 5.08668 12.8296 6.19765L11.4223 7.71186Z" fill="white"></path><path d="M25.5524 12.5918C25.4989 12.5466 20.335 8.02451 19.1623 7.14397C18.4834 6.63786 18.1089 6.50619 17.7139 6.45682C17.5082 6.43213 17.2243 6.46916 17.0226 6.52265C16.4795 6.67078 15.7676 7.14809 15.134 7.65008C14.4797 8.17264 13.8625 8.66229 13.2906 8.78985C12.5582 8.95444 11.6653 8.76105 11.2579 8.48536C11.0934 8.37426 10.9781 8.24671 10.9205 8.11504C10.7683 7.76529 11.0481 7.48549 11.0933 7.44023L12.5212 5.89722C12.6857 5.73263 12.8544 5.56804 13.0231 5.40346C12.5623 5.46518 12.1385 5.58039 11.7229 5.6956C11.2045 5.83961 10.7107 5.97951 10.2046 5.97951C9.99473 5.97951 8.87142 5.79435 8.65746 5.73675C7.36544 5.38288 5.90473 5.04136 4.21359 4.25134C2.18505 5.76143 0.864223 7.61305 0.473328 9.69097C0.765471 9.76915 1.5267 9.94196 1.72421 9.98722C6.31209 11.0077 7.73989 12.0569 7.99911 12.2791C8.27891 11.9664 8.68625 11.7689 9.13475 11.7689C9.64086 11.7689 10.1017 12.024 10.3774 12.419C10.6407 12.2133 11.0028 12.0322 11.4719 12.0322C11.6859 12.0322 11.9039 12.0734 12.1261 12.1474C12.6446 12.3244 12.912 12.67 13.0478 12.9827C13.2206 12.9045 13.4346 12.8469 13.6856 12.8469C13.9325 12.8469 14.1917 12.9045 14.4468 13.0156C15.2945 13.3777 15.4261 14.2089 15.3479 14.8343C15.4097 14.8261 15.4673 14.8261 15.529 14.8261C16.533 14.8261 17.3477 15.6408 17.3477 16.6448C17.3477 16.9534 17.2695 17.2455 17.1296 17.5048C17.4012 17.657 18.0966 18.0068 18.7096 17.9286C19.1952 17.8669 19.3844 17.7023 19.4503 17.6076C19.4955 17.5418 19.5449 17.4677 19.4997 17.4142L18.2035 15.9782C18.2035 15.9782 17.9896 15.7766 18.0595 15.6984C18.1336 15.6202 18.2653 15.7313 18.3558 15.8095C19.0141 16.3609 19.8165 17.1879 19.8165 17.1879C19.8288 17.1962 19.8823 17.3031 20.1827 17.3566C20.4378 17.4019 20.8904 17.3772 21.2073 17.118C21.2854 17.0521 21.3636 16.9699 21.4336 16.8876C21.4295 16.8917 21.4253 16.8958 21.4171 16.8999C21.7504 16.4761 21.3801 16.0482 21.3801 16.0482L19.87 14.3529C19.87 14.3529 19.6519 14.1513 19.726 14.0731C19.7918 14.0032 19.9317 14.1101 20.0264 14.1883C20.5037 14.5874 21.1826 15.2664 21.8286 15.9C21.9561 15.9947 22.524 16.3444 23.277 15.8507C23.7337 15.5503 23.8283 15.18 23.8119 14.9043C23.779 14.5381 23.4909 14.2747 23.4909 14.2747L21.4254 12.2009C21.4254 12.2009 21.2073 12.0158 21.2854 11.9211C21.3472 11.8429 21.4912 11.954 21.5817 12.0322C22.24 12.5836 24.0176 14.213 24.0176 14.213C24.0423 14.2295 24.6595 14.6697 25.4166 14.1842C25.6882 14.0114 25.861 13.7481 25.8774 13.4436C25.9268 12.9045 25.5524 12.5918 25.5524 12.5918Z" fill="white"></path><path d="M15.5409 15.2212C15.22 15.2171 14.8702 15.4064 14.825 15.3817C14.8003 15.3652 14.8455 15.2377 14.8743 15.1636C14.9073 15.0895 15.327 13.8222 14.2983 13.3819C13.5124 13.0445 13.031 13.4231 12.8664 13.5959C12.8252 13.6412 12.8047 13.637 12.8006 13.5794C12.7841 13.349 12.6812 12.7318 12.0023 12.5261C11.0312 12.2298 10.4099 12.9046 10.2494 13.1515C10.1795 12.6001 9.71041 12.1681 9.13847 12.1681C8.51715 12.1681 8.01105 12.6701 8.01105 13.2914C8.01105 13.9127 8.51304 14.4188 9.13847 14.4188C9.43884 14.4188 9.71453 14.2995 9.91615 14.1061C9.92438 14.1102 9.92438 14.1226 9.92027 14.1431C9.87089 14.4229 9.78449 15.4352 10.8461 15.8466C11.2699 16.0112 11.632 15.8878 11.9324 15.6779C12.0229 15.6162 12.0352 15.6409 12.0229 15.7273C11.9858 15.9865 12.0352 16.5461 12.8129 16.8588C13.4054 17.1016 13.7593 16.8547 13.9897 16.6408C14.0885 16.5502 14.1173 16.5626 14.1214 16.7066C14.1502 17.4596 14.7756 18.0562 15.5327 18.0603C16.3145 18.0603 16.9481 17.4267 16.9523 16.6449C16.9564 15.8549 16.3227 15.2294 15.5409 15.2212Z" fill="white"></path><path d="M16.7797 0.00231934C7.51341 0.00231934 0 4.93172 0 10.9762C0 11.1326 0 11.5646 0 11.6181C0 18.0329 6.56703 23.2256 16.7797 23.2256C27.0541 23.2256 33.5594 18.0329 33.5594 11.6181C33.5594 11.3959 33.5594 11.2642 33.5594 10.9762C33.5594 4.92761 26.046 0.00231934 16.7797 0.00231934ZM32.8023 9.75825C29.1567 10.5688 26.4369 11.7456 25.7538 12.0501C24.1615 10.6594 20.4829 7.46226 19.4872 6.71338C18.9193 6.28545 18.5284 6.05915 18.1869 5.95628C18.0347 5.91102 17.8207 5.85752 17.5491 5.85752C17.294 5.85752 17.0225 5.90279 16.7386 5.99331C16.0926 6.19904 15.4507 6.70515 14.8335 7.19891L14.8005 7.2236C14.2245 7.68445 13.6237 8.15764 13.1711 8.2605C12.9736 8.30577 12.772 8.32634 12.5704 8.32634C12.0643 8.32634 11.6075 8.17821 11.4388 7.96013C11.41 7.9231 11.4306 7.86549 11.4964 7.7832L11.5047 7.77086L12.9037 6.26077C14.0023 5.16214 15.0351 4.12935 17.4216 4.07175C17.4627 4.07175 17.4998 4.07175 17.5409 4.07175C19.0263 4.07175 20.5076 4.73833 20.6763 4.81239C22.0671 5.49132 23.5031 5.83695 24.9474 5.83695C26.4492 5.83695 28.0005 5.46663 29.6258 4.71776C31.3293 6.1579 32.4567 7.88195 32.8023 9.75825ZM16.7797 0.648325C21.6968 0.648325 26.0995 2.05966 29.0579 4.27748C27.626 4.89469 26.2641 5.2074 24.9474 5.2074C23.6019 5.2074 22.2564 4.88234 20.9479 4.24457C20.8779 4.21165 19.2403 3.43809 17.5368 3.43809C17.4916 3.43809 17.4463 3.43809 17.401 3.43809C15.3972 3.48335 14.2697 4.19519 13.5126 4.82062C12.7761 4.83708 12.1383 5.01813 11.5705 5.17449C11.0644 5.31439 10.6282 5.43783 10.2044 5.43783C10.0275 5.43783 9.71478 5.42137 9.68597 5.42137C9.19633 5.40491 6.74398 4.80416 4.78539 4.06352C7.73974 1.96914 12.019 0.648325 16.7797 0.648325ZM4.2052 4.50379C6.2502 5.33907 8.73547 5.9892 9.52138 6.03857C9.73946 6.05503 9.97401 6.07972 10.2085 6.07972C10.7311 6.07972 11.2496 5.9357 11.7516 5.79169C12.0478 5.7094 12.377 5.61887 12.7226 5.55304C12.6321 5.64356 12.5375 5.73408 12.4469 5.82872L11.0232 7.36762C10.9122 7.47871 10.6694 7.7832 10.8299 8.15352C10.8916 8.30165 11.0233 8.44567 11.2043 8.56911C11.5417 8.79541 12.1507 8.95177 12.7144 8.95177C12.9283 8.95177 13.13 8.9312 13.3151 8.89005C13.9118 8.75838 14.5372 8.25639 15.1997 7.72971C15.7264 7.31001 16.4793 6.77922 17.0513 6.62286C17.2118 6.5776 17.4092 6.55291 17.5697 6.55291C17.6191 6.55291 17.6602 6.55291 17.7014 6.56114C18.0799 6.61051 18.4462 6.73807 19.1045 7.22772C20.2731 8.10415 25.4411 12.6262 25.4905 12.6715C25.4946 12.6756 25.8238 12.9595 25.7991 13.4327C25.7868 13.696 25.6386 13.9305 25.3876 14.091C25.1654 14.2309 24.9391 14.3009 24.7087 14.3009C24.3631 14.3009 24.1244 14.1404 24.108 14.1281C24.0874 14.1116 22.3181 12.4904 21.668 11.9432C21.5651 11.8567 21.4622 11.7786 21.3635 11.7786C21.31 11.7786 21.2606 11.8033 21.2277 11.8403C21.1248 11.9678 21.24 12.1407 21.3758 12.2559L23.4455 14.3338C23.4496 14.3379 23.7047 14.5766 23.7335 14.8934C23.75 15.239 23.5854 15.5271 23.2439 15.7492C23.0011 15.9097 22.7542 15.992 22.5115 15.992C22.1946 15.992 21.9724 15.848 21.9231 15.811L21.6268 15.5188C21.0837 14.9839 20.5241 14.4325 20.1126 14.091C20.0139 14.0087 19.9069 13.9305 19.804 13.9305C19.7546 13.9305 19.7094 13.947 19.6723 13.9882C19.6271 14.0416 19.5941 14.1322 19.7094 14.2885C19.7546 14.3502 19.8122 14.4037 19.8122 14.4037L21.3223 16.099C21.3347 16.1155 21.635 16.4693 21.3552 16.8232L21.3017 16.889C21.2565 16.9384 21.2071 16.9837 21.1619 17.0248C20.9026 17.2346 20.5611 17.2593 20.4253 17.2593C20.3512 17.2593 20.2813 17.2552 20.2196 17.2429C20.0714 17.2182 19.9686 17.1729 19.9233 17.1194L19.9028 17.0989C19.8205 17.0125 19.0592 16.2389 18.4297 15.7122C18.3474 15.6423 18.2445 15.5559 18.1375 15.5559C18.0841 15.5559 18.0388 15.5764 18.0018 15.6176C17.8783 15.7534 18.0635 15.9591 18.1458 16.0332L19.4337 17.4527C19.4337 17.4651 19.4172 17.4939 19.3843 17.5391C19.339 17.6009 19.1827 17.7572 18.7136 17.8189C18.656 17.8272 18.5984 17.8313 18.5408 17.8313C18.0594 17.8313 17.545 17.5967 17.2817 17.4568C17.401 17.2017 17.4668 16.9219 17.4668 16.6421C17.4668 15.5805 16.6069 14.7206 15.5494 14.7206C15.5288 14.7206 15.5042 14.7206 15.4795 14.7206C15.5124 14.235 15.4466 13.3216 14.5043 12.9183C14.2327 12.8031 13.9653 12.7414 13.7019 12.7414C13.4962 12.7414 13.2987 12.7784 13.1135 12.8484C12.9201 12.4698 12.5951 12.1942 12.1754 12.0501C11.9408 11.9678 11.7104 11.9308 11.4841 11.9308C11.0932 11.9308 10.7311 12.046 10.4102 12.2764C10.1016 11.8938 9.6366 11.6675 9.14695 11.6675C8.71902 11.6675 8.30756 11.8403 7.99896 12.1407C7.59984 11.8362 6.00743 10.824 1.75284 9.85701C1.55122 9.81174 1.09039 9.68007 0.798251 9.59367C1.19326 7.68033 2.40708 5.9357 4.2052 4.50379ZM12.0972 15.5805L12.0519 15.5394H12.0067C11.9696 15.5394 11.9285 15.5559 11.875 15.5929C11.6569 15.7451 11.4512 15.8192 11.2372 15.8192C11.122 15.8192 11.0027 15.7945 10.8833 15.7492C9.89581 15.3666 9.97401 14.4325 10.0234 14.1527C10.0316 14.0951 10.0151 14.0499 9.98222 14.0211L9.91228 13.9635L9.84645 14.0252C9.65306 14.2104 9.40205 14.3132 9.13871 14.3132C8.575 14.3132 8.11416 13.8524 8.11416 13.2887C8.11416 12.7249 8.575 12.2641 9.13871 12.2641C9.64894 12.2641 10.0851 12.6468 10.1468 13.157L10.1839 13.4327L10.3361 13.1981C10.3526 13.1693 10.7681 12.5439 11.5293 12.5439C11.6734 12.5439 11.8215 12.5686 11.9737 12.6138C12.5786 12.799 12.6815 13.3504 12.6979 13.5767C12.7103 13.7084 12.8049 13.7166 12.8214 13.7166C12.8749 13.7166 12.9119 13.6837 12.9407 13.6549C13.0559 13.5355 13.3028 13.338 13.6937 13.338C13.8706 13.338 14.064 13.3792 14.2574 13.4656C15.2202 13.8812 14.7841 15.1032 14.78 15.1156C14.6977 15.3172 14.6935 15.4077 14.7717 15.4612L14.8088 15.4777H14.8376C14.8787 15.4777 14.9363 15.4612 15.0227 15.4283C15.1544 15.383 15.3519 15.3131 15.5371 15.3131C16.2612 15.3213 16.8538 15.9138 16.8538 16.6298C16.8538 17.354 16.2612 17.9424 15.5371 17.9424C14.8293 17.9424 14.2492 17.391 14.2245 16.6874C14.2245 16.6257 14.2162 16.4652 14.0805 16.4652C14.027 16.4652 13.9776 16.4981 13.92 16.5475C13.7636 16.6915 13.5661 16.8396 13.274 16.8396C13.1423 16.8396 12.9983 16.8108 12.8502 16.7491C12.1013 16.4446 12.0931 15.9303 12.1219 15.7246C12.1342 15.6834 12.1383 15.6258 12.0972 15.5805ZM16.7797 21.2917C7.86728 21.2917 0.64601 16.6709 0.64601 10.968C0.64601 10.7375 0.662454 10.5112 0.683028 10.2849C0.752977 10.3014 1.4607 10.4701 1.60883 10.503C5.95395 11.47 7.38998 12.4739 7.63275 12.6632C7.55045 12.8607 7.50931 13.0747 7.50931 13.2887C7.50931 14.1857 8.2376 14.9181 9.13871 14.9181C9.23747 14.9181 9.34035 14.9098 9.4391 14.8893C9.57489 15.5517 10.0069 16.0496 10.6694 16.3088C10.8628 16.3829 11.0562 16.4199 11.2496 16.4199C11.373 16.4199 11.4964 16.4035 11.6199 16.3747C11.7433 16.6833 12.0149 17.0701 12.6321 17.3211C12.846 17.4075 13.0641 17.4527 13.2699 17.4527C13.4386 17.4527 13.6073 17.4239 13.7677 17.3622C14.0599 18.0782 14.7635 18.5555 15.5412 18.5555C16.0596 18.5555 16.5534 18.3456 16.9155 17.9712C17.2241 18.144 17.8783 18.4567 18.5408 18.4567C18.6272 18.4567 18.7054 18.4526 18.7877 18.4403C19.4419 18.358 19.7505 18.0987 19.8904 17.9012C19.9151 17.8683 19.9398 17.8313 19.9603 17.7901C20.1167 17.8354 20.2854 17.8724 20.4829 17.8724C20.8409 17.8724 21.1865 17.749 21.5322 17.498C21.8737 17.2511 22.1165 16.8972 22.1535 16.5969C22.1535 16.5928 22.1535 16.5886 22.1535 16.5845C22.2687 16.6092 22.388 16.6216 22.5032 16.6216C22.8736 16.6216 23.2357 16.5063 23.5813 16.28C24.252 15.8398 24.3672 15.2678 24.3549 14.8934C24.4742 14.9181 24.5935 14.9304 24.7128 14.9304C25.0585 14.9304 25.4 14.8276 25.725 14.6177C26.1406 14.3544 26.3916 13.947 26.4287 13.4738C26.4533 13.1529 26.3752 12.8278 26.2065 12.548C27.3257 12.0666 29.885 11.1326 32.8969 10.4536C32.9093 10.6223 32.9175 10.7952 32.9175 10.968C32.9175 16.6709 25.6921 21.2917 16.7797 21.2917Z" fill="#2D3277"></path></svg>